<svg version='1.1' baseProfile='full' xmlns='http://www.w3.org/2000/svg' width='765.9838556493611' height='146.66738929200642'><g transform='translate(5, 5)'><g transform='scale(0.7297141463796921) translate(174, -75)'><g><g><polyline points="20,150 32,150 44,150 " style="fill: none; stroke: black;"></polyline></g></g><g><g><polyline points="124,150 136,150 148,150 " style="fill: none; stroke: black;"></polyline></g></g><g><g><polyline points="228,150 240,150 252,150 " style="fill: none; stroke: black;"></polyline></g></g><g><g><polyline points="332,150 344,150 356,150 " style="fill: none; stroke: black;"></polyline></g></g><g><g><polyline points="436,150 448,150 460,150 " style="fill: none; stroke: black;"></polyline></g></g><g><g><polyline points="540,150 552,150 564,150 " style="fill: none; stroke: black;"></polyline></g></g><g><g><polyline points="644,150 656,150 668,150 " style="fill: none; stroke: black;"></polyline></g></g><g></g><g><g transform="translate(0, 75)"><path d="M 0 0 L 20 0 V 150 L 0 150 V 0 z" style="fill: rgb(36, 161, 179); stroke: rgb(27, 123, 137); stroke-width: 4; stroke-linejoin: round;"></path><g></g><text text-anchor="middle" x="10" y="167" font-size="12">1</text><text text-anchor="middle" x="10" y="184" font-size="12">InputLayer</text></g><g transform="translate(-174, 75)"><rect x="0" y="0" width="150" height="150" style="stroke: lightgrey; stroke-linejoin: round; stroke-width: 2; fill-opacity: 0; stroke-dasharray: 4;"></rect></g></g><g><g transform="translate(44, 75)"><path d="M 0 0 L 80 0 V 150 L 0 150 V 0 z" style="fill: rgb(36, 179, 143); stroke: rgb(27, 137, 109); stroke-width: 4; stroke-linejoin: round;"></path><g></g><text text-anchor="middle" x="40" y="167" font-size="12">32</text><text text-anchor="middle" x="40" y="184" font-size="12">Conv2D</text></g></g><g><g transform="translate(148, 75)"><path d="M 0 0 L 80 40 V 110 L 0 150 V 0 z" style="fill: rgb(179, 36, 71); stroke: rgb(137, 27, 54); stroke-width: 4; stroke-linejoin: round;"></path><g></g><text text-anchor="middle" x="40" y="167" font-size="12">32</text><text text-anchor="middle" x="40" y="184" font-size="12">MaxPooling2D</text></g></g><g><g transform="translate(252, 75)"><path d="M 0 40 L 80 40 V 110 L 0 110 V 40 z" style="fill: rgb(36, 179, 143); stroke: rgb(27, 137, 109); stroke-width: 4; stroke-linejoin: round;"></path><g></g><text text-anchor="middle" x="40" y="127" font-size="12">32</text><text text-anchor="middle" x="40" y="144" font-size="12">Conv2D</text></g></g><g><g transform="translate(356, 75)"><path d="M 0 40 L 80 60 V 90 L 0 110 V 40 z" style="fill: rgb(179, 36, 71); stroke: rgb(137, 27, 54); stroke-width: 4; stroke-linejoin: round;"></path><g></g><text text-anchor="middle" x="40" y="127" font-size="12">32</text><text text-anchor="middle" x="40" y="144" font-size="12">MaxPooling2D</text></g></g><g><g transform="translate(460, 75)"><path d="M 0 60 L 80 40 V 110 L 0 90 V 60 z" style="fill: rgb(126, 36, 179); stroke: rgb(96, 27, 137); stroke-width: 4; stroke-linejoin: round;"></path><g></g><text text-anchor="middle" x="40" y="127" font-size="12">32</text><text text-anchor="middle" x="40" y="144" font-size="12">Conv2DTranspose</text></g></g><g><g transform="translate(564, 75)"><path d="M 0 40 L 80 0 V 150 L 0 110 V 40 z" style="fill: rgb(126, 36, 179); stroke: rgb(96, 27, 137); stroke-width: 4; stroke-linejoin: round;"></path><g></g><text text-anchor="middle" x="40" y="167" font-size="12">32</text><text text-anchor="middle" x="40" y="184" font-size="12">Conv2DTranspose</text></g></g><g><g transform="translate(668, 75)"><path d="M 0 0 L 20 0 V 150 L 0 150 V 0 z" style="fill: rgb(36, 179, 143); stroke: rgb(27, 137, 109); stroke-width: 4; stroke-linejoin: round;"></path><g></g><text text-anchor="middle" x="10" y="167" font-size="12">1</text><text text-anchor="middle" x="10" y="184" font-size="12">Conv2D</text></g><g transform="translate(712, 75)"><rect x="0" y="0" width="150" height="150" style="stroke: lightgrey; stroke-linejoin: round; stroke-width: 2; fill-opacity: 0; stroke-dasharray: 4;"></rect></g></g></g></g></svg>